<svg width="600" height="350" viewBox="0 0 600 350" fill="none" xmlns="http://www.w3.org/2000/svg">
<path d="M475 0C405 0 350 55 350 125C350 195 405 250 475 250C482.5 250 492.5 250 500 247.5C467.5 280 425 300 375 300C360 300 350 310 350 325C350 340 360 350 375 350C500 350 600 250 600 125C600 55 545 0 475 0Z" fill="#0055FE"/>
<path d="M125 0C55 0 0 55 0 125C0 195 55 250 125 250C132.5 250 142.5 250 150 247.5C117.5 280 75 300 25 300C10 300 0 310 0 325C0 340 10 350 25 350C150 350 250 250 250 125C250 55 195 0 125 0Z" fill="#0055FE"/>
</svg>
